<svg version="1.1" xmlns="http://www.w3.org/2000/svg" viewBox="0 0 59.529291673280795 59.52929167328057" width="59.529291673280795" height="59.52929167328057"><!-- svg-source:excalidraw --><metadata></metadata><defs><style class="style-fonts">
      </style></defs><rect x="0" y="0" width="59.529291673280795" height="59.52929167328057" fill="#ffffff"></rect><g stroke-linecap="round" transform="translate(10.000000000000114 10) rotate(0 19.76464583664034 19.764645836640284)"><path d="M39.53 19.76 C39.53 20.91, 39.43 22.07, 39.23 23.2 C39.03 24.32, 38.73 25.45, 38.34 26.52 C37.95 27.6, 37.45 28.66, 36.88 29.65 C36.31 30.64, 35.64 31.59, 34.91 32.47 C34.17 33.35, 33.35 34.17, 32.47 34.91 C31.59 35.64, 30.64 36.31, 29.65 36.88 C28.66 37.45, 27.6 37.95, 26.52 38.34 C25.45 38.73, 24.32 39.03, 23.2 39.23 C22.07 39.43, 20.91 39.53, 19.76 39.53 C18.62 39.53, 17.46 39.43, 16.33 39.23 C15.21 39.03, 14.08 38.73, 13 38.34 C11.93 37.95, 10.87 37.45, 9.88 36.88 C8.89 36.31, 7.94 35.64, 7.06 34.91 C6.18 34.17, 5.36 33.35, 4.62 32.47 C3.89 31.59, 3.22 30.64, 2.65 29.65 C2.08 28.66, 1.58 27.6, 1.19 26.52 C0.8 25.45, 0.5 24.32, 0.3 23.2 C0.1 22.07, 0 20.91, 0 19.76 C0 18.62, 0.1 17.46, 0.3 16.33 C0.5 15.21, 0.8 14.08, 1.19 13 C1.58 11.93, 2.08 10.87, 2.65 9.88 C3.22 8.89, 3.89 7.94, 4.62 7.06 C5.36 6.18, 6.18 5.36, 7.06 4.62 C7.94 3.89, 8.89 3.22, 9.88 2.65 C10.87 2.08, 11.93 1.58, 13 1.19 C14.08 0.8, 15.21 0.5, 16.33 0.3 C17.46 0.1, 18.62 0, 19.76 0 C20.91 0, 22.07 0.1, 23.2 0.3 C24.32 0.5, 25.45 0.8, 26.52 1.19 C27.6 1.58, 28.66 2.08, 29.65 2.65 C30.64 3.22, 31.59 3.89, 32.47 4.62 C33.35 5.36, 34.17 6.18, 34.91 7.06 C35.64 7.94, 36.31 8.89, 36.88 9.88 C37.45 10.87, 37.95 11.93, 38.34 13 C38.73 14.08, 39.03 15.21, 39.23 16.33 C39.43 17.46, 39.48 19.19, 39.53 19.76 C39.58 20.34, 39.58 19.19, 39.53 19.76" stroke="none" stroke-width="0" fill="#228be6"></path><path d="M39.53 19.76 C39.53 20.91, 39.43 22.07, 39.23 23.2 C39.03 24.32, 38.73 25.45, 38.34 26.52 C37.95 27.6, 37.45 28.66, 36.88 29.65 C36.31 30.64, 35.64 31.59, 34.91 32.47 C34.17 33.35, 33.35 34.17, 32.47 34.91 C31.59 35.64, 30.64 36.31, 29.65 36.88 C28.66 37.45, 27.6 37.95, 26.52 38.34 C25.45 38.73, 24.32 39.03, 23.2 39.23 C22.07 39.43, 20.91 39.53, 19.76 39.53 C18.62 39.53, 17.46 39.43, 16.33 39.23 C15.21 39.03, 14.08 38.73, 13 38.34 C11.93 37.95, 10.87 37.45, 9.88 36.88 C8.89 36.31, 7.94 35.64, 7.06 34.91 C6.18 34.17, 5.36 33.35, 4.62 32.47 C3.89 31.59, 3.22 30.64, 2.65 29.65 C2.08 28.66, 1.58 27.6, 1.19 26.52 C0.8 25.45, 0.5 24.32, 0.3 23.2 C0.1 22.07, 0 20.91, 0 19.76 C0 18.62, 0.1 17.46, 0.3 16.33 C0.5 15.21, 0.8 14.08, 1.19 13 C1.58 11.93, 2.08 10.87, 2.65 9.88 C3.22 8.89, 3.89 7.94, 4.62 7.06 C5.36 6.18, 6.18 5.36, 7.06 4.62 C7.94 3.89, 8.89 3.22, 9.88 2.65 C10.87 2.08, 11.93 1.58, 13 1.19 C14.08 0.8, 15.21 0.5, 16.33 0.3 C17.46 0.1, 18.62 0, 19.76 0 C20.91 0, 22.07 0.1, 23.2 0.3 C24.32 0.5, 25.45 0.8, 26.52 1.19 C27.6 1.58, 28.66 2.08, 29.65 2.65 C30.64 3.22, 31.59 3.89, 32.47 4.62 C33.35 5.36, 34.17 6.18, 34.91 7.06 C35.64 7.94, 36.31 8.89, 36.88 9.88 C37.45 10.87, 37.95 11.93, 38.34 13 C38.73 14.08, 39.03 15.21, 39.23 16.33 C39.43 17.46, 39.48 19.19, 39.53 19.76 C39.58 20.34, 39.58 19.19, 39.53 19.76" stroke="#343a40" stroke-width="2" fill="none"></path></g></svg> 